<svg width="59" height="64" viewBox="0 0 59 64" fill="none" xmlns="http://www.w3.org/2000/svg">
<path fill-rule="evenodd" clip-rule="evenodd" d="M29.8947 40.4959C40.8822 40.4959 49.7894 31.5886 49.7894 20.601C49.7894 9.61332 40.8822 0.706055 29.8947 0.706055C18.9071 0.706055 9.99992 9.61332 9.99992 20.601C9.99992 31.5886 18.9071 40.4959 29.8947 40.4959ZM43.6486 31.1605C43.7613 31.3556 43.7448 31.6002 43.6023 31.7748C40.3595 35.7482 35.4233 38.2854 29.8947 38.2854C23.6918 38.2854 18.2349 35.0918 15.0783 30.2592C14.8456 29.9029 15.1088 29.4432 15.5344 29.4432H29.7239C29.7789 29.4442 29.834 29.4447 29.889 29.4447C30.6585 29.4459 31.4333 29.3465 32.1936 29.1414C32.9462 28.9393 33.6592 28.6403 34.3183 28.2588C34.9788 27.878 35.5944 27.4092 36.1459 26.8575C36.697 26.3075 37.1656 25.6935 37.5465 25.0348C37.9364 24.3633 38.2405 23.6358 38.4437 22.8672C38.4909 22.6895 38.7358 22.6512 38.8277 22.8104L43.6486 31.1605ZM13.3598 26.8859C13.4398 27.0963 13.6432 27.2326 13.8684 27.2326H23.4797C23.6758 27.2326 23.7712 26.9858 23.6328 26.8469C23.0779 26.2913 22.607 25.6707 22.2255 25.0048C21.8541 24.3594 21.5618 23.6627 21.3619 22.9278C21.1516 22.1586 21.0499 21.3743 21.0511 20.5955C21.0508 19.8252 21.1513 19.0496 21.358 18.2886C21.5586 17.5463 21.8534 16.8428 22.2288 16.1915C22.2596 16.1377 22.2911 16.0843 22.3231 16.0311L29.8947 2.9166C20.1279 2.9166 12.2104 10.8342 12.2104 20.601C12.2104 22.8145 12.6171 24.933 13.3598 26.8859ZM32.1635 3.40788C32.276 3.21307 32.4963 3.10518 32.7184 3.14082C41.1429 4.49274 47.5789 11.7953 47.5789 20.601C47.5789 23.4822 46.8898 26.2025 45.6675 28.6061C45.4748 28.9851 44.9459 28.9864 44.7333 28.6182L37.6385 16.3296C37.6074 16.2732 37.5756 16.2171 37.5432 16.1615C37.1616 15.5026 36.6921 14.8885 36.1401 14.3387C35.596 13.7954 34.9896 13.3327 34.3395 12.9555C33.6659 12.5631 32.9358 12.2571 32.1642 12.0528C31.4133 11.8529 30.6485 11.7561 29.8889 11.7573C29.1301 11.7571 28.3662 11.8547 27.6162 12.0551C27.4268 12.1055 27.2609 11.8996 27.3589 11.7299L32.1635 3.40788ZM33.2104 14.8578C34.2313 15.4472 35.0482 16.2641 35.6377 17.2852L35.6418 17.2921C36.2284 18.3111 36.5263 19.4256 36.5263 20.601C36.5263 21.779 36.227 22.8961 35.6378 23.9168C35.0484 24.9376 34.2311 25.7549 33.2104 26.3442C32.1899 26.9334 31.0733 27.2326 29.8947 27.2326L29.8879 27.2326C28.7116 27.2314 27.5976 26.9323 26.5789 26.3442C25.5584 25.755 24.7405 24.937 24.1515 23.9168C23.5624 22.8964 23.2631 21.78 23.2631 20.601C23.2631 19.422 23.5623 18.3057 24.1515 17.2852L24.1626 17.266C24.7509 16.2547 25.5646 15.4434 26.5788 14.8578C27.5996 14.2685 28.7162 13.9693 29.8947 13.9693C31.0729 13.9693 32.1899 14.2686 33.2104 14.8578Z" fill="white"/>
<path d="M7.9905 58.2832C7.82029 58.7371 7.57713 59.1302 7.26103 59.4625C6.94492 59.7867 6.57208 60.0339 6.1425 60.2042C5.72103 60.3744 5.25903 60.4595 4.7565 60.4595C3.99461 60.4595 3.33403 60.2933 2.77476 59.961C2.22361 59.6206 1.79403 59.1424 1.48603 58.5264C1.18613 57.9104 1.03618 57.1768 1.03618 56.3258C1.03618 55.4747 1.18613 54.7412 1.48603 54.1252C1.79403 53.5092 2.22361 53.035 2.77476 52.7027C3.33403 52.3623 3.9865 52.1921 4.73218 52.1921C5.25092 52.1921 5.71292 52.265 6.11818 52.4109C6.52345 52.5487 6.86792 52.7595 7.15161 53.0432C7.4434 53.3187 7.6744 53.6592 7.84461 54.0644L6.88413 54.5143C6.70582 54.0523 6.44645 53.7037 6.10603 53.4687C5.77371 53.2255 5.34008 53.1039 4.80513 53.1039C4.26208 53.1039 3.78387 53.2336 3.3705 53.493C2.95713 53.7443 2.63292 54.109 2.39787 54.5872C2.17092 55.0654 2.05745 55.6449 2.05745 56.3258C2.05745 56.9985 2.16687 57.578 2.38571 58.0644C2.60455 58.5426 2.91661 58.9114 3.32187 59.1707C3.72713 59.422 4.20534 59.5476 4.7565 59.5476C5.29145 59.5476 5.7575 59.4139 6.15466 59.1464C6.55182 58.8708 6.83955 58.4615 7.01787 57.9185L7.9905 58.2832ZM17.3709 52.3137V60.3379H16.3983V52.3137H17.3709ZM12.0457 52.3137V60.3379H11.0731V52.3137H12.0457ZM16.8481 55.8152V56.727H11.5837V55.8152H16.8481ZM24.2568 52.3137C25.0754 52.3137 25.732 52.5244 26.2264 52.9459C26.7208 53.3674 26.968 53.9388 26.968 54.6602C26.968 55.3815 26.7168 55.9448 26.2142 56.3501C25.7198 56.7473 25.0633 56.9458 24.2447 56.9458L24.1596 57.0066H22.19V60.3379H21.2173V52.3137H24.2568ZM24.2447 56.0948C24.8201 56.0948 25.2457 55.9773 25.5212 55.7422C25.8049 55.499 25.9468 55.1384 25.9468 54.6602C25.9468 54.1819 25.8049 53.8253 25.5212 53.5903C25.2457 53.3471 24.8201 53.2255 24.2447 53.2255H22.19V56.0948H24.2447ZM24.8039 56.2893L27.4543 60.3379H26.2993L23.9893 56.8243L24.8039 56.2893ZM33.6814 52.1921C34.4433 52.1921 35.0998 52.3623 35.6509 52.7027C36.2102 53.035 36.6398 53.5092 36.9397 54.1252C37.2477 54.7412 37.4017 55.4747 37.4017 56.3258C37.4017 57.1768 37.2477 57.9104 36.9397 58.5264C36.6398 59.1424 36.2102 59.6206 35.6509 59.961C35.0998 60.2933 34.4433 60.4595 33.6814 60.4595C32.9195 60.4595 32.2589 60.2933 31.6996 59.961C31.1485 59.6206 30.7189 59.1424 30.4109 58.5264C30.111 57.9104 29.961 57.1768 29.961 56.3258C29.961 55.4747 30.111 54.7412 30.4109 54.1252C30.7189 53.5092 31.1485 53.035 31.6996 52.7027C32.2589 52.3623 32.9195 52.1921 33.6814 52.1921ZM33.6814 53.1039C33.1302 53.1039 32.652 53.2336 32.2467 53.493C31.8415 53.7443 31.5294 54.113 31.3106 54.5994C31.0917 55.0776 30.9823 55.653 30.9823 56.3258C30.9823 56.9985 31.0917 57.578 31.3106 58.0644C31.5294 58.5426 31.8415 58.9114 32.2467 59.1707C32.652 59.422 33.1302 59.5476 33.6814 59.5476C34.2406 59.5476 34.7188 59.422 35.116 59.1707C35.5213 58.9114 35.8333 58.5426 36.0522 58.0644C36.271 57.578 36.3804 56.9985 36.3804 56.3258C36.3804 55.653 36.271 55.0776 36.0522 54.5994C35.8333 54.113 35.5213 53.7443 35.116 53.493C34.7188 53.2336 34.2406 53.1039 33.6814 53.1039ZM48.5146 52.3137V60.3379H47.5906V55.2924L47.7 53.1769H47.6878L45.0496 60.3379H44.2228L41.5846 53.1769H41.5724L41.6818 55.2924V60.3379H40.7578V52.3137H42.2533L44.0161 57.189L44.624 59.195H44.6484L45.2684 57.2012L47.0191 52.3137H48.5146ZM52.3506 60.3379V52.3137H57.9797V53.2255H53.3232V55.8152H56.9463V56.727H53.3232V59.426H58.162V60.3379H52.3506Z" fill="white"/>
</svg>
