<svg width="19" height="20" viewBox="0 0 19 20" fill="none" xmlns="http://www.w3.org/2000/svg">
<path d="M11.2251 10.2043C11.1899 10.1671 11.17 10.1166 11.17 10.0639C11.17 10.0112 11.1899 9.96067 11.2251 9.92346L18.1724 2.5751C18.6116 2.10976 18.6111 1.35582 18.1712 0.891135C17.7313 0.426449 17.0186 0.426982 16.5794 0.892325L9.63287 8.23751C9.59769 8.27482 9.54993 8.29578 9.50012 8.29578C9.45031 8.29578 9.40255 8.27482 9.36737 8.23751L2.42087 0.892325C1.9816 0.42742 1.26923 0.427242 0.829746 0.891928C0.390265 1.35661 0.390097 2.1102 0.829371 2.5751L7.77512 9.92346C7.81039 9.96067 7.83021 10.0112 7.83021 10.0639C7.83021 10.1166 7.81039 10.1671 7.77512 10.2043L0.829371 17.5535C0.545211 17.8542 0.434305 18.2925 0.538431 18.7032C0.642557 19.1139 0.945895 19.4346 1.33418 19.5446C1.72247 19.6545 2.13671 19.537 2.42087 19.2363L9.36737 11.8871C9.40255 11.8498 9.45031 11.8288 9.50012 11.8288C9.54993 11.8288 9.59769 11.8498 9.63287 11.8871L16.5794 19.2363C17.0186 19.7012 17.731 19.7013 18.1705 19.2366C18.61 18.772 18.6101 18.0184 18.1709 17.5535L11.2251 10.2043Z" fill="#FF2E29"/>
</svg>
