<svg width="49" height="64" viewBox="0 0 49 64" fill="none" xmlns="http://www.w3.org/2000/svg">
<path d="M4.35969 52.1921C5.06485 52.1921 5.67274 52.338 6.18337 52.6298C6.694 52.9135 7.11953 53.3349 7.45995 53.8942L6.64537 54.5264C6.34548 54.0077 6.00506 53.6429 5.62411 53.4322C5.25127 53.2134 4.79737 53.1039 4.26243 53.1039C3.83285 53.1039 3.47621 53.1647 3.19253 53.2863C2.91695 53.4079 2.71432 53.57 2.58464 53.7726C2.45495 53.9672 2.39011 54.19 2.39011 54.4413C2.39011 54.725 2.47927 54.9763 2.65758 55.1951C2.8359 55.4058 3.19253 55.572 3.72748 55.6936L5.46606 56.0826C6.23606 56.2528 6.771 56.5122 7.0709 56.8607C7.3789 57.2012 7.5329 57.6267 7.5329 58.1373C7.5329 58.5912 7.40321 58.9965 7.14385 59.3531C6.89258 59.7016 6.53595 59.9732 6.07395 60.1677C5.61195 60.3622 5.0689 60.4595 4.44479 60.4595C3.86121 60.4595 3.34653 60.3825 2.90074 60.2285C2.46306 60.0664 2.08616 59.8516 1.77006 59.5841C1.45395 59.3166 1.19458 59.0167 0.991951 58.6844L1.843 57.9914C1.997 58.2994 2.19558 58.5709 2.43874 58.806C2.6819 59.041 2.97369 59.2234 3.31411 59.3531C3.66264 59.4828 4.05979 59.5476 4.50558 59.5476C4.91895 59.5476 5.27558 59.499 5.57548 59.4017C5.88348 59.2964 6.11853 59.1464 6.28064 58.9519C6.44274 58.7493 6.52379 58.5061 6.52379 58.2224C6.52379 57.963 6.43869 57.732 6.26848 57.5294C6.09827 57.3187 5.77811 57.1606 5.308 57.0553L3.42353 56.6297C2.92911 56.5163 2.5279 56.3623 2.2199 56.1677C1.92 55.9651 1.70116 55.73 1.56337 55.4626C1.43369 55.187 1.36885 54.8912 1.36885 54.575C1.36885 54.1455 1.48637 53.7524 1.72143 53.3957C1.96458 53.031 2.30906 52.7392 2.75485 52.5204C3.20874 52.3015 3.74369 52.1921 4.35969 52.1921ZM17.0749 60.3379H16.0414L15.1904 58.113H11.5552L10.7041 60.3379H9.68285L12.8074 52.3137H13.9624L17.0749 60.3379ZM11.9077 57.2012H14.8378L13.3667 53.2498L11.9077 57.2012ZM25.5386 53.2255H20.8943V55.8152H24.5174V56.727H20.8943V60.3379H19.9217V52.3137H25.5386V53.2255ZM34.0983 60.3379H33.0649L32.2138 58.113H28.5786L27.7275 60.3379H26.7063L29.8309 52.3137H30.9859L34.0983 60.3379ZM28.9312 57.2012H31.8612L30.3901 53.2498L28.9312 57.2012ZM39.9846 52.3137C40.8032 52.3137 41.4598 52.5244 41.9542 52.9459C42.4486 53.3674 42.6958 53.9388 42.6958 54.6602C42.6958 55.3815 42.4445 55.9448 41.942 56.3501C41.4476 56.7473 40.7911 56.9458 39.9724 56.9458L39.8873 57.0066H37.9178V60.3379H36.9451V52.3137H39.9846ZM39.9724 56.0948C40.5479 56.0948 40.9734 55.9773 41.249 55.7422C41.5327 55.499 41.6745 55.1384 41.6745 54.6602C41.6745 54.1819 41.5327 53.8253 41.249 53.5903C40.9734 53.3471 40.5479 53.2255 39.9724 53.2255H37.9178V56.0948H39.9724ZM40.5317 56.2893L43.1821 60.3379H42.0271L39.7171 56.8243L40.5317 56.2893ZM47.219 52.3137V60.3379H46.2464V52.3137H47.219Z" fill="white"/>
<path d="M23.8948 0.706055C12.9067 0.706055 4.00009 9.61271 4.00009 20.6008C4.00009 31.5889 12.9067 40.4955 23.8948 40.4955C34.8829 40.4955 43.7896 31.5889 43.7896 20.6008C43.7896 9.61271 34.8829 0.706055 23.8948 0.706055ZM23.8948 39.2895C13.5894 39.2895 5.20615 30.9063 5.20615 20.6008C5.20615 10.2953 13.5894 1.91168 23.8948 1.91168C34.2003 1.91168 42.5835 10.2953 42.5835 20.6003C42.5835 30.9063 34.2003 39.2895 23.8948 39.2895Z" fill="white" stroke="white" stroke-width="1.10526"/>
<path d="M24.0568 36.4951V34.8482C24.0568 34.637 23.8856 34.4658 23.6744 34.4658C23.4632 34.4658 23.292 34.637 23.292 34.8482V36.4951C23.292 36.7063 23.4632 36.8775 23.6744 36.8775C23.8856 36.8775 24.0568 36.7063 24.0568 36.4951Z" fill="white"/>
<path d="M24.0568 6.35348V4.70664C24.0568 4.49543 23.8856 4.32422 23.6744 4.32422C23.4632 4.32422 23.292 4.49543 23.292 4.70664V6.35348C23.292 6.56469 23.4632 6.7359 23.6744 6.7359C23.8856 6.7359 24.0568 6.56469 24.0568 6.35348Z" fill="white"/>
<path d="M39.7901 19.998H38.1432C37.932 19.998 37.7608 20.1693 37.7608 20.3805C37.7608 20.5917 37.932 20.7629 38.1432 20.7629H39.7901C40.0013 20.7629 40.1725 20.5917 40.1725 20.3805C40.1725 20.1693 40.0013 19.998 39.7901 19.998Z" fill="white"/>
<path d="M9.64683 19.998H7.99999C7.78878 19.998 7.61757 20.1693 7.61757 20.3805C7.61757 20.5917 7.78879 20.7629 7.99999 20.7629H9.64683C9.85804 20.7629 10.0293 20.5917 10.0293 20.3805C10.0293 20.1693 9.85804 19.998 9.64683 19.998Z" fill="white"/>
<path d="M33.5455 31.1028L34.7087 32.2666C34.858 32.416 35.1001 32.4161 35.2495 32.2668C35.3989 32.1175 35.399 31.8753 35.2497 31.7259L34.0865 30.5621C33.9372 30.4127 33.695 30.4126 33.5456 30.5619C33.3963 30.7112 33.3962 30.9534 33.5455 31.1028Z" fill="white"/>
<path d="M14.2475 10.0983L13.0825 8.93436C12.9331 8.78508 12.691 8.78518 12.5417 8.93459C12.3924 9.084 12.3925 9.32613 12.5419 9.47541L13.7069 10.6394C13.8563 10.7887 14.0984 10.7886 14.2477 10.6392C14.397 10.4898 14.3969 10.2476 14.2475 10.0983Z" fill="white"/>
<path d="M28.6733 34.0412L29.2896 35.5673C29.3686 35.7631 29.5915 35.8578 29.7873 35.7787C29.9832 35.6996 30.0778 35.4767 29.9988 35.2809L29.3825 33.7548C29.3034 33.559 29.0806 33.4643 28.8847 33.5434C28.6889 33.6225 28.5942 33.8453 28.6733 34.0412Z" fill="white"/>
<path d="M19.1161 7.16259L18.4999 5.63777C18.4208 5.44195 18.1979 5.34735 18.0021 5.42649C17.8063 5.50562 17.7117 5.72852 17.7908 5.92434L18.407 7.44916C18.4862 7.64498 18.709 7.73958 18.9049 7.66044C19.1007 7.58131 19.1953 7.35841 19.1161 7.16259Z" fill="white"/>
<path d="M37.3324 15.8215L38.8593 15.2047C39.0551 15.1256 39.1498 14.9028 39.0707 14.7069C38.9916 14.5111 38.7687 14.4165 38.5729 14.4956L37.0459 15.1123C36.8501 15.1914 36.7555 15.4143 36.8346 15.6101C36.9137 15.8059 37.1365 15.9006 37.3324 15.8215Z" fill="white"/>
<path d="M10.4574 25.3813L8.93006 25.9983C8.73423 26.0775 8.63962 26.3004 8.71874 26.4962C8.79785 26.692 9.02074 26.7866 9.21657 26.7075L10.7439 26.0904C10.9398 26.0113 11.0344 25.7884 10.9553 25.5926C10.8761 25.3968 10.6533 25.3022 10.4574 25.3813Z" fill="white"/>
<path d="M36.7724 26.7237L38.2879 27.3672C38.4824 27.4497 38.7069 27.359 38.7894 27.1646C38.8719 26.9702 38.7812 26.7457 38.5868 26.6631L37.0713 26.0197C36.8769 25.9372 36.6524 26.0279 36.5699 26.2223C36.4873 26.4167 36.578 26.6412 36.7724 26.7237Z" fill="white"/>
<path d="M11.0141 14.4787L9.49801 13.8358C9.30356 13.7534 9.07909 13.8442 8.99663 14.0386C8.91417 14.233 9.00496 14.4575 9.1994 14.54L10.7155 15.1829C10.9099 15.2653 11.1344 15.1746 11.2168 14.9801C11.2993 14.7857 11.2085 14.5612 11.0141 14.4787Z" fill="white"/>
<path d="M29.611 7.54683L30.2533 6.03141C30.3357 5.83695 30.2448 5.6125 30.0504 5.53008C29.8559 5.44767 29.6315 5.5385 29.549 5.73296L28.9068 7.24838C28.8244 7.44284 28.9152 7.66729 29.1097 7.74971C29.3041 7.83212 29.5286 7.74129 29.611 7.54683Z" fill="white"/>
<path d="M18.1778 33.6568L17.5351 35.1715C17.4526 35.3659 17.5433 35.5904 17.7377 35.6729C17.9322 35.7554 18.1566 35.6647 18.2391 35.4702L18.8819 33.9556C18.9644 33.7611 18.8736 33.5367 18.6792 33.4542C18.4848 33.3716 18.2603 33.4624 18.1778 33.6568Z" fill="white"/>
<path d="M21.4056 18.112L11.5298 32.4231C11.4836 32.4902 11.564 32.571 11.6307 32.5244L25.9423 22.6487L35.8185 8.33678C35.8643 8.26964 35.7843 8.19009 35.7172 8.23585L21.4056 18.112ZM15.8772 28.1771L22.1214 19.0469L24.9831 21.9092L15.8772 28.1771Z" fill="white"/>
</svg>
