<?xml version="1.0" ?><svg style="enable-background:new 0 0 48 48;" version="1.1" viewBox="0 0 48 48" xml:space="preserve" xmlns="http://www.w3.org/2000/svg" xmlns:xlink="http://www.w3.org/1999/xlink"><g id="Icons"><g><g><path d="M38.62744,34.90911H9.37245c-1.21976,0-2.20851-0.98886-2.20851-2.20851v-17.4011     c0-1.21976,0.98875-2.20862,2.20862-2.20862h29.25477c1.21987,0,2.20873,0.98886,2.20873,2.20873v17.40088     C40.83606,33.92026,39.8472,34.90911,38.62744,34.90911z" style="fill:#F9F9F9;"/><rect height="3.43589" style="fill:#383838;" width="33.67212" x="7.16394" y="18.76018"/><path d="     M38.62744,34.90911H9.37245c-1.21976,0-2.20851-0.98886-2.20851-2.20851v-17.4011c0-1.21976,0.98875-2.20862,2.20862-2.20862     h29.25477c1.21987,0,2.20873,0.98886,2.20873,2.20873v17.40088C40.83606,33.92026,39.8472,34.90911,38.62744,34.90911z" style="fill:none;stroke:#303030;stroke-width:0.8;stroke-linecap:round;stroke-linejoin:round;stroke-miterlimit:10;"/><line style="fill:none;stroke:#303030;stroke-width:0.8;stroke-linecap:round;stroke-linejoin:round;stroke-miterlimit:10;" x1="7.16394" x2="40.60214" y1="18.76018" y2="18.76018"/><line style="fill:none;stroke:#303030;stroke-width:0.8;stroke-linecap:round;stroke-linejoin:round;stroke-miterlimit:10;" x1="40.59009" x2="7.34546" y1="22.19606" y2="22.19606"/><line style="fill:none;stroke:#303030;stroke-width:0.8;stroke-linecap:round;stroke-linejoin:round;stroke-miterlimit:10;" x1="10.25618" x2="18.5883" y1="30.87183" y2="30.87183"/><line style="fill:none;stroke:#303030;stroke-width:0.8;stroke-linecap:round;stroke-linejoin:round;stroke-miterlimit:10;" x1="10.25618" x2="13.83698" y1="28.18824" y2="28.18824"/></g></g></g></svg>
